<svg version="1.1" id="Layer_1" xmlns="http://www.w3.org/2000/svg" xmlns:xlink="http://www.w3.org/1999/xlink" x="0px" y="0px"
	 width="100%" viewBox="0 0 225 225" enable-background="new 0 0 225 225" xml:space="preserve">
<path fill="#E6E6E6" opacity="1.000000" stroke="none" 
	d="
M112.000000,226.000000 
	C74.666672,226.000000 37.833336,226.000000 1.000005,226.000000 
	C1.000003,151.000000 1.000003,76.000015 1.000002,1.000015 
	C75.999992,1.000010 150.999985,1.000010 225.999969,1.000005 
	C225.999985,75.999985 225.999985,150.999969 226.000000,225.999969 
	C188.166672,226.000000 150.333328,226.000000 112.000000,226.000000 
M181.932434,132.827133 
	C173.242203,118.619011 156.375885,118.926186 148.310852,133.402069 
	C147.716583,134.468750 146.818588,135.772736 145.779694,136.118271 
	C139.684113,138.145721 133.897507,134.584198 132.352768,128.392288 
	C131.063049,123.222542 129.386978,118.149185 128.029037,113.532936 
	C129.401398,108.977547 131.133804,104.391777 132.121857,99.650879 
	C133.341904,93.796936 136.205734,90.861389 142.270721,90.746971 
	C148.601028,90.627556 154.940582,90.870308 161.265686,90.652580 
	C164.899811,90.527481 167.167114,91.228493 168.997147,94.996231 
	C172.654922,102.526970 180.887741,105.783752 189.319077,104.008446 
	C197.092178,102.371735 203.124329,95.194359 203.729263,86.862434 
	C204.258835,79.568588 199.474060,71.919785 192.491470,68.898048 
	C184.823227,65.579597 174.864334,66.969490 171.091476,74.191208 
	C167.108719,81.814728 161.561142,81.394760 155.131302,81.139610 
	C152.302795,81.027367 149.466110,81.120667 146.633148,81.120712 
	C130.524017,81.120964 125.868019,85.022141 122.833534,100.910301 
	C121.989815,105.327873 119.148567,107.708244 114.786972,108.730782 
	C110.675667,109.694633 109.862183,106.774170 108.351631,104.167679 
	C104.703690,97.873070 99.111694,94.796082 91.798073,94.948158 
	C84.650398,95.096779 79.187569,98.387032 76.088440,104.660835 
	C74.507584,107.861061 72.820038,109.423332 69.347977,108.825729 
	C65.357910,108.138962 60.877750,110.781654 57.968506,104.728180 
	C52.218826,92.764458 35.615421,91.412102 27.393921,101.618385 
	C20.443092,110.247246 22.282051,122.816307 31.376232,128.837051 
	C40.633263,134.965591 52.871101,132.170441 57.981743,122.276108 
	C59.745773,118.860893 61.692081,117.593513 65.280952,118.062347 
	C66.919472,118.276398 68.621315,118.227364 70.272781,118.070190 
	C72.925293,117.817764 74.371979,118.712402 75.595078,121.308212 
	C78.854050,128.224808 84.549187,131.961029 92.284660,131.949844 
	C99.991219,131.938690 105.775467,128.323242 109.003357,121.359901 
	C110.483383,118.167107 112.490547,117.775635 115.369469,118.453545 
	C119.764267,119.488396 122.293297,122.247772 122.902184,126.703049 
	C124.761566,140.308350 130.172241,145.213043 143.718292,145.971588 
	C145.290192,146.059631 147.417221,147.331070 148.197708,148.682770 
	C153.939667,158.626938 163.528214,162.334442 173.036682,157.972946 
	C182.146942,153.794098 185.846222,143.958771 181.932434,132.827133 
z"/>
<path fill="#FE705D" opacity="1.000000" stroke="none" 
	d="
M182.079987,133.182068 
	C185.846222,143.958771 182.146942,153.794098 173.036682,157.972946 
	C163.528214,162.334442 153.939667,158.626938 148.197708,148.682770 
	C147.417221,147.331070 145.290192,146.059631 143.718292,145.971588 
	C130.172241,145.213043 124.761566,140.308350 122.902184,126.703049 
	C122.293297,122.247772 119.764267,119.488396 115.369469,118.453545 
	C112.490547,117.775635 110.483383,118.167107 109.003357,121.359901 
	C105.775467,128.323242 99.991219,131.938690 92.284660,131.949844 
	C84.549187,131.961029 78.854050,128.224808 75.595078,121.308212 
	C74.371979,118.712402 72.925293,117.817764 70.272781,118.070190 
	C68.621315,118.227364 66.919472,118.276398 65.280952,118.062347 
	C61.692081,117.593513 59.745773,118.860893 57.981743,122.276108 
	C52.871101,132.170441 40.633263,134.965591 31.376232,128.837051 
	C22.282051,122.816307 20.443092,110.247246 27.393921,101.618385 
	C35.615421,91.412102 52.218826,92.764458 57.968506,104.728180 
	C60.877750,110.781654 65.357910,108.138962 69.347977,108.825729 
	C72.820038,109.423332 74.507584,107.861061 76.088440,104.660835 
	C79.187569,98.387032 84.650398,95.096779 91.798073,94.948158 
	C99.111694,94.796082 104.703690,97.873070 108.351631,104.167679 
	C109.862183,106.774170 110.675667,109.694633 114.786972,108.730782 
	C119.148567,107.708244 121.989815,105.327873 122.833534,100.910301 
	C125.868019,85.022141 130.524017,81.120964 146.633148,81.120712 
	C149.466110,81.120667 152.302795,81.027367 155.131302,81.139610 
	C161.561142,81.394760 167.108719,81.814728 171.091476,74.191208 
	C174.864334,66.969490 184.823227,65.579597 192.491470,68.898048 
	C199.474060,71.919785 204.258835,79.568588 203.729263,86.862434 
	C203.124329,95.194359 197.092178,102.371735 189.319077,104.008446 
	C180.887741,105.783752 172.654922,102.526970 168.997147,94.996231 
	C167.167114,91.228493 164.899811,90.527481 161.265686,90.652580 
	C154.940582,90.870308 148.601028,90.627556 142.270721,90.746971 
	C136.205734,90.861389 133.341904,93.796936 132.121857,99.650879 
	C131.133804,104.391777 129.401398,108.977547 128.029037,113.532936 
	C129.386978,118.149185 131.063049,123.222542 132.352768,128.392288 
	C133.897507,134.584198 139.684113,138.145721 145.779694,136.118271 
	C146.818588,135.772736 147.716583,134.468750 148.310852,133.402069 
	C156.375885,118.926186 173.242203,118.619011 182.079987,133.182068 
M35.972477,106.346382 
	C31.956884,110.920135 31.432974,114.921417 34.337044,118.836716 
	C37.311424,122.846825 42.528530,123.829651 46.711395,121.167877 
	C50.936100,118.479485 52.303978,113.201996 49.876976,108.954597 
	C47.209106,104.285667 42.156101,103.123993 35.972477,106.346382 
M83.371872,115.781281 
	C85.154068,120.499832 88.395493,123.292839 93.597000,122.532829 
	C98.224014,121.856750 101.078781,118.767212 101.510582,114.170525 
	C101.925476,109.753868 99.589401,106.537926 95.506462,104.818970 
	C89.168846,102.150764 83.250748,107.089806 83.371872,115.781281 
M183.772476,76.903748 
	C176.415665,78.945084 173.449997,85.722763 177.519363,91.194458 
	C180.191177,94.787010 184.741730,96.273613 188.493118,94.457733 
	C192.607254,92.466278 194.726471,89.159462 194.050903,84.417038 
	C193.392654,79.796158 190.356522,77.375122 183.772476,76.903748 
M174.534454,140.643951 
	C174.241150,139.526611 174.112961,138.330750 173.625473,137.305771 
	C171.688629,133.233444 168.356293,131.412460 163.928131,132.046951 
	C159.707016,132.651764 157.045380,135.325684 156.214096,139.421875 
	C155.362564,143.617920 157.209000,146.916260 160.775818,149.080872 
	C166.545853,152.582535 172.695648,149.085052 174.534454,140.643951 
z"/>
<path fill="#E7E2E1" opacity="1.000000" stroke="none" 
	d="
M36.275105,106.121750 
	C42.156101,103.123993 47.209106,104.285667 49.876976,108.954597 
	C52.303978,113.201996 50.936100,118.479485 46.711395,121.167877 
	C42.528530,123.829651 37.311424,122.846825 34.337044,118.836716 
	C31.432974,114.921417 31.956884,110.920135 36.275105,106.121750 
z"/>
<path fill="#E7E2E1" opacity="1.000000" stroke="none" 
	d="
M83.274574,115.402390 
	C83.250748,107.089806 89.168846,102.150764 95.506462,104.818970 
	C99.589401,106.537926 101.925476,109.753868 101.510582,114.170525 
	C101.078781,118.767212 98.224014,121.856750 93.597000,122.532829 
	C88.395493,123.292839 85.154068,120.499832 83.274574,115.402390 
z"/>
<path fill="#E7E3E2" opacity="1.000000" stroke="none" 
	d="
M184.181351,76.881287 
	C190.356522,77.375122 193.392654,79.796158 194.050903,84.417038 
	C194.726471,89.159462 192.607254,92.466278 188.493118,94.457733 
	C184.741730,96.273613 180.191177,94.787010 177.519363,91.194458 
	C173.449997,85.722763 176.415665,78.945084 184.181351,76.881287 
z"/>
<path fill="#E7E3E2" opacity="1.000000" stroke="none" 
	d="
M174.536667,141.011383 
	C172.695648,149.085052 166.545853,152.582535 160.775818,149.080872 
	C157.209000,146.916260 155.362564,143.617920 156.214096,139.421875 
	C157.045380,135.325684 159.707016,132.651764 163.928131,132.046951 
	C168.356293,131.412460 171.688629,133.233444 173.625473,137.305771 
	C174.112961,138.330750 174.241150,139.526611 174.536667,141.011383 
z"/>
</svg>